<svg width="192" height="38" viewBox="0 0 192 38" fill="none" xmlns="http://www.w3.org/2000/svg">
<path d="M14.0925 32.0217C10.4829 32.0217 6.87339 30.6676 4.12404 27.9595C-1.37468 22.5433 -1.37468 13.734 4.12404 8.31781L11.4677 1.08431C12.0063 0.553772 12.8786 0.553772 13.4132 1.08431C13.9518 1.61484 13.9518 2.47399 13.4132 3.00057L6.06949 10.2341C1.64399 14.5932 1.64399 21.6802 6.06949 26.0393C10.491 30.3944 17.6899 30.3944 22.1154 26.0393L28.4382 19.8114C28.8883 19.368 28.8924 18.6514 28.4502 18.2L28.4341 18.1881C27.996 17.7566 27.2283 17.7566 26.7902 18.1881L20.3911 24.4912C16.882 27.9476 11.1703 27.9476 7.66122 24.4912C5.96096 22.8165 5.02441 20.5914 5.02441 18.2238C5.02441 15.8562 5.96096 13.6311 7.66122 11.9563L13.8312 5.87893C18.6265 1.15161 23.7916 -0.649832 30.0821 0.205361C30.8338 0.3083 31.3604 0.993246 31.2599 1.73362C31.1554 2.47795 30.46 2.99661 29.7083 2.89367C24.2699 2.1533 19.9771 3.66572 15.7807 7.79915L9.61069 13.8766C7.17486 16.2758 7.17486 20.1796 9.61069 22.5789C12.0465 24.9782 16.0098 24.9782 18.4456 22.5789L24.8447 16.2758C25.5843 15.5473 26.5691 15.1435 27.6142 15.1435C28.6592 15.1435 29.6199 15.5355 30.3555 16.2442L30.3876 16.2758C31.9151 17.7803 31.9151 20.2271 30.3876 21.7317L24.0649 27.9595C21.3156 30.6676 17.706 32.0217 14.0965 32.0217H14.0925Z" fill="#40AE49"/>
<path d="M14.6916 37.0301C13.743 37.0301 12.7703 36.9627 11.7654 36.8242C11.0137 36.7212 10.4872 36.0363 10.5877 35.2959C10.6922 34.5555 11.3916 34.0369 12.1392 34.1359C17.5776 34.8723 21.8705 33.3599 26.0669 29.2304L32.2368 23.153C33.4186 21.989 34.0657 20.4449 34.0657 18.8018C34.0657 17.1587 33.4146 15.6146 32.2368 14.4506C31.0551 13.2866 29.4875 12.6492 27.8194 12.6492C26.1513 12.6492 24.5837 13.2906 23.4019 14.4506L17.0028 20.7537C15.4754 22.2582 12.9913 22.2582 11.4639 20.7537C10.7203 20.0212 10.3143 19.0552 10.3143 18.0218C10.3143 16.9885 10.7203 16.0224 11.4639 15.2939L17.7866 9.06607C23.2853 3.64985 32.2288 3.64985 37.7275 9.06607C43.2262 14.4823 43.2262 23.2916 37.7275 28.7078L30.3838 35.9413C29.8452 36.4718 28.973 36.4718 28.4384 35.9413C27.8998 35.4107 27.8998 34.5516 28.4384 34.025L35.7821 26.7915C40.2076 22.4324 40.2076 15.3454 35.7821 10.9863C31.3566 6.63115 24.1616 6.63115 19.7361 10.9863L13.4134 17.2141C13.1923 17.4319 13.0717 17.717 13.0717 18.0258C13.0717 18.3346 13.1923 18.6197 13.4134 18.8374C13.8716 19.2888 14.6072 19.2848 15.0614 18.8374L21.4605 12.5343C23.1607 10.8596 25.4197 9.9371 27.8234 9.9371C30.2271 9.9371 32.486 10.8596 34.1863 12.5343C35.8866 14.2091 36.8231 16.4342 36.8231 18.8018C36.8231 21.1694 35.8866 23.3945 34.1863 25.0692L28.0163 31.1466C23.9847 35.1177 19.6919 37.0261 14.6916 37.0261V37.0301Z" fill="#40AE49"/>
<path d="M57.1581 23.2009V29.8682H53.4199V10.4522C53.4199 8.532 54.7705 7.16211 56.6677 7.16211H62.5603C67.2752 7.16211 70.7803 10.3334 70.7803 15.1083C70.7803 19.8831 67.3034 23.2009 62.5603 23.2009H57.1581ZM57.1581 19.6218H62.5603C65.177 19.6218 66.9858 17.757 66.9858 15.1083C66.9858 12.4595 65.0886 10.769 62.5603 10.769H58.0464C57.5279 10.769 57.1541 11.149 57.1541 11.6717V19.6178L57.1581 19.6218Z" fill="white"/>
<path d="M80.8777 14.8789V18.458H79.2096C76.7939 18.458 75.1579 20.1763 75.1579 22.738V29.8685H71.5645V22.738C71.5645 17.1792 74.5831 14.8789 79.2096 14.8789H80.8777Z" fill="white"/>
<path d="M82.3008 9.52181C82.3008 8.23902 83.3338 7.16211 84.6281 7.16211C85.9224 7.16211 86.9273 8.23902 86.9273 9.52181C86.9273 10.8046 85.8942 11.8815 84.6281 11.8815C83.3619 11.8815 82.3008 10.8046 82.3008 9.52181ZM86.4128 14.8786V29.8682H82.8193V14.8786H86.4128Z" fill="white"/>
<path d="M96.8072 14.5859C100.919 14.5859 103.966 17.2069 103.966 21.7759V29.8685H100.373V21.863C100.373 19.4479 98.8491 18.1374 96.8072 18.1374C94.7653 18.1374 93.2419 19.4479 93.2419 21.863V29.8685H89.6484V21.7759C89.6484 17.2069 92.6671 14.5859 96.8072 14.5859Z" fill="white"/>
<path d="M114.513 30.0425C110.976 30.0425 108.966 28.1223 108.966 24.2502V18.1965H105.316V14.8787H107.905C108.596 14.8787 108.97 14.4986 108.97 13.8018V9.64062H112.564V14.8787H118.026V18.1965H112.564V23.9017C112.564 25.7071 113.283 26.5227 115.208 26.5227C115.9 26.5227 116.788 26.495 118.026 26.3169V29.8089C116.82 29.9831 115.554 30.0425 114.517 30.0425H114.513Z" fill="white"/>
<path d="M121.012 22.8247H125.007C125.727 25.6793 127.825 26.6968 130.615 26.6968C133.545 26.6968 135.816 25.6199 135.816 23.2048C135.816 21.3994 134.638 20.5838 132.596 20.4412L128.171 20.0334C124.32 19.685 121.675 17.4124 121.675 13.7185C121.675 9.49796 125.152 6.87695 130.156 6.87695C134.469 6.87695 138.292 8.94367 139.24 13.4255H135.217C134.385 11.1252 132.371 10.3967 130.072 10.3967C127.081 10.3967 125.445 11.7072 125.445 13.5997C125.445 15.2863 126.712 16.2207 128.665 16.3632L133.034 16.771C136.913 17.1195 139.59 19.1585 139.59 22.9435C139.59 27.2511 136.081 30.1611 130.623 30.1611C125.65 30.1611 121.968 28.1221 121.02 22.8247H121.012Z" fill="white"/>
<path d="M149.209 30.1615C144.811 30.1615 141.592 26.8714 141.592 22.3896C141.592 17.9077 144.811 14.5859 149.209 14.5859C152.975 14.5859 155.905 17.0327 156.54 20.5842H152.802C152.284 19.1272 150.877 18.1374 149.181 18.1374C146.91 18.1374 145.242 19.9428 145.242 22.3856C145.242 24.8284 146.91 26.6339 149.181 26.6339C150.849 26.6339 152.284 25.644 152.802 24.1871H156.54C155.877 27.7385 152.975 30.1536 149.209 30.1536V30.1615Z" fill="white"/>
<path d="M158.08 22.3896C158.08 17.8761 161.412 14.5859 165.955 14.5859C170.497 14.5859 173.66 17.8167 173.66 22.156V29.8685H170.328V27.4217C169.206 29.2549 167.394 30.1576 165.44 30.1576C161.272 30.1576 158.08 26.8674 158.08 22.3856V22.3896ZM165.87 18.1413C163.483 18.1413 161.73 19.9467 161.73 22.3896C161.73 24.8324 163.483 26.6378 165.87 26.6378C168.258 26.6378 170.01 24.8324 170.01 22.3896C170.01 19.9467 168.286 18.1413 165.87 18.1413Z" fill="white"/>
<path d="M183.842 14.5859C187.954 14.5859 191.001 17.2069 191.001 21.7759V29.8685H187.408V21.863C187.408 19.4479 185.884 18.1374 183.842 18.1374C181.8 18.1374 180.277 19.4479 180.277 21.863V29.8685H176.684V21.7759C176.684 17.2069 179.702 14.5859 183.842 14.5859Z" fill="white"/>
</svg>
